<svg width="135" height="135" viewBox="0 0 135 135" fill="none" xmlns="http://www.w3.org/2000/svg">
<g id="description_FILL0_wght400_GRAD0_opsz24">
<path id="Vector" d="M45 101.25H90V90H45V101.25ZM45 78.75H90V67.5H45V78.75ZM33.75 123.75C30.6562 123.75 28.0078 122.648 25.8047 120.445C23.6016 118.242 22.5 115.594 22.5 112.5V22.5C22.5 19.4063 23.6016 16.7578 25.8047 14.5547C28.0078 12.3516 30.6562 11.25 33.75 11.25H78.75L112.5 45V112.5C112.5 115.594 111.398 118.242 109.195 120.445C106.992 122.648 104.344 123.75 101.25 123.75H33.75ZM73.125 50.625V22.5H33.75V112.5H101.25V50.625H73.125Z" fill="#6B6B6B"/>
</g>
</svg>
