<svg width="135" height="99" viewBox="0 0 135 99" fill="none" xmlns="http://www.w3.org/2000/svg">
<path id="Vector" d="M0 98.1818V73.6364C0 70.1591 1.2017 67.2443 3.60511 64.892C6.00852 62.5398 8.89773 61.3636 12.2727 61.3636H32.3693C34.4148 61.3636 36.358 61.875 38.1989 62.8977C40.0398 63.9205 41.5227 65.3011 42.6477 67.0398C45.6136 71.0284 49.2699 74.1477 53.6165 76.3977C57.9631 78.6477 62.5909 79.7727 67.5 79.7727C72.5114 79.7727 77.1903 78.6477 81.5369 76.3977C85.8835 74.1477 89.4886 71.0284 92.3523 67.0398C93.6818 65.3011 95.2415 63.9205 97.0312 62.8977C98.821 61.875 100.688 61.3636 102.631 61.3636H122.727C126.205 61.3636 129.119 62.5398 131.472 64.892C133.824 67.2443 135 70.1591 135 73.6364V98.1818H92.0455V84.2216C88.4659 86.7784 84.6051 88.7216 80.4631 90.0511C76.321 91.3807 72 92.0455 67.5 92.0455C63.1023 92.0455 58.8068 91.3551 54.6136 89.9744C50.4205 88.5938 46.5341 86.625 42.9545 84.0682V98.1818H0ZM67.5 73.6364C63.6136 73.6364 59.9318 72.7415 56.4545 70.9517C52.9773 69.1619 50.0625 66.6818 47.7102 63.5114C45.9716 60.9545 43.7983 58.9347 41.1903 57.4517C38.5824 55.9688 35.7443 55.2273 32.6761 55.2273C34.9261 51.4432 39.6818 48.4517 46.9432 46.2528C54.2045 44.054 61.0568 42.9545 67.5 42.9545C73.9432 42.9545 80.7955 44.054 88.0568 46.2528C95.3182 48.4517 100.074 51.4432 102.324 55.2273C99.358 55.2273 96.5455 55.9688 93.8864 57.4517C91.2273 58.9347 89.0284 60.9545 87.2898 63.5114C85.0398 66.7841 82.1761 69.2898 78.6989 71.0284C75.2216 72.767 71.4886 73.6364 67.5 73.6364ZM18.4091 55.2273C13.2955 55.2273 8.94886 53.4375 5.36932 49.858C1.78977 46.2784 0 41.9318 0 36.8182C0 31.6023 1.78977 27.2301 5.36932 23.7017C8.94886 20.1733 13.2955 18.4091 18.4091 18.4091C23.625 18.4091 27.9972 20.1733 31.5256 23.7017C35.054 27.2301 36.8182 31.6023 36.8182 36.8182C36.8182 41.9318 35.054 46.2784 31.5256 49.858C27.9972 53.4375 23.625 55.2273 18.4091 55.2273ZM116.591 55.2273C111.477 55.2273 107.131 53.4375 103.551 49.858C99.9716 46.2784 98.1818 41.9318 98.1818 36.8182C98.1818 31.6023 99.9716 27.2301 103.551 23.7017C107.131 20.1733 111.477 18.4091 116.591 18.4091C121.807 18.4091 126.179 20.1733 129.707 23.7017C133.236 27.2301 135 31.6023 135 36.8182C135 41.9318 133.236 46.2784 129.707 49.858C126.179 53.4375 121.807 55.2273 116.591 55.2273ZM67.5 36.8182C62.3864 36.8182 58.0398 35.0284 54.4602 31.4489C50.8807 27.8693 49.0909 23.5227 49.0909 18.4091C49.0909 13.1932 50.8807 8.82102 54.4602 5.29261C58.0398 1.7642 62.3864 0 67.5 0C72.7159 0 77.0881 1.7642 80.6165 5.29261C84.1449 8.82102 85.9091 13.1932 85.9091 18.4091C85.9091 23.5227 84.1449 27.8693 80.6165 31.4489C77.0881 35.0284 72.7159 36.8182 67.5 36.8182Z" fill="#6B6B6B"/>
</svg>
