<svg width="135" height="111" viewBox="0 0 135 111" fill="none" xmlns="http://www.w3.org/2000/svg">
<path id="Vector" d="M67.5 42.9545L46.0227 21.4773L67.5 0L88.9773 21.4773L67.5 42.9545ZM0 110.455L0 85.9091C0 82.4318 1.2017 79.517 3.60511 77.1647C6.00852 74.8125 8.89773 73.6363 12.2727 73.6363H32.3693C34.4148 73.6363 36.358 74.1477 38.1989 75.1704C40.0398 76.1932 41.5227 77.5738 42.6477 79.3125C45.6136 83.3011 49.2699 86.4204 53.6165 88.6704C57.9631 90.9204 62.5909 92.0454 67.5 92.0454C72.5114 92.0454 77.1903 90.9204 81.5369 88.6704C85.8835 86.4204 89.4886 83.3011 92.3523 79.3125C93.6818 77.5738 95.2415 76.1932 97.0312 75.1704C98.821 74.1477 100.688 73.6363 102.631 73.6363H122.727C126.205 73.6363 129.119 74.8125 131.472 77.1647C133.824 79.517 135 82.4318 135 85.9091V110.455H92.0455V96.4943C88.4659 99.0511 84.6051 100.994 80.4631 102.324C76.321 103.653 72 104.318 67.5 104.318C63.1023 104.318 58.8068 103.628 54.6136 102.247C50.4205 100.866 46.5341 98.8977 42.9545 96.3409V110.455H0ZM18.4091 67.5C13.2955 67.5 8.94886 65.7102 5.36932 62.1307C1.78977 58.5511 0 54.2045 0 49.0909C0 43.875 1.78977 39.5028 5.36932 35.9744C8.94886 32.446 13.2955 30.6818 18.4091 30.6818C23.625 30.6818 27.9972 32.446 31.5256 35.9744C35.054 39.5028 36.8182 43.875 36.8182 49.0909C36.8182 54.2045 35.054 58.5511 31.5256 62.1307C27.9972 65.7102 23.625 67.5 18.4091 67.5ZM116.591 67.5C111.477 67.5 107.131 65.7102 103.551 62.1307C99.9716 58.5511 98.1818 54.2045 98.1818 49.0909C98.1818 43.875 99.9716 39.5028 103.551 35.9744C107.131 32.446 111.477 30.6818 116.591 30.6818C121.807 30.6818 126.179 32.446 129.707 35.9744C133.236 39.5028 135 43.875 135 49.0909C135 54.2045 133.236 58.5511 129.707 62.1307C126.179 65.7102 121.807 67.5 116.591 67.5Z" fill="#6B6B6B"/>
</svg>
