<svg width="135" height="111" viewBox="0 0 135 111" fill="none" xmlns="http://www.w3.org/2000/svg">
<path id="Vector" d="M0 110.959V93.6986C0 90.3082 0.873288 87.1233 2.61986 84.1438C4.36644 81.1644 6.78082 78.9041 9.86301 77.363C15.1027 74.6918 21.0103 72.4315 27.5856 70.5822C34.161 68.7329 41.4041 67.8082 49.3151 67.8082C57.226 67.8082 64.4692 68.7329 71.0445 70.5822C77.6199 72.4315 83.5274 74.6918 88.7671 77.363C91.8493 78.9041 94.2637 81.1644 96.0103 84.1438C97.7568 87.1233 98.6301 90.3082 98.6301 93.6986V110.959H0ZM12.3288 98.6301H86.3014V93.6986C86.3014 92.5685 86.0188 91.5411 85.4538 90.6164C84.8887 89.6918 84.1438 88.9726 83.2192 88.4589C79.5205 86.6096 74.7688 84.7603 68.964 82.911C63.1592 81.0616 56.6096 80.137 49.3151 80.137C42.0205 80.137 35.4709 81.0616 29.6661 82.911C23.8613 84.7603 19.1096 86.6096 15.411 88.4589C14.4863 88.9726 13.7414 89.6918 13.1764 90.6164C12.6113 91.5411 12.3288 92.5685 12.3288 93.6986V98.6301ZM49.3151 61.6438C42.5342 61.6438 36.7295 59.2295 31.9007 54.4007C27.0719 49.5719 24.6575 43.7671 24.6575 36.9863H23.1164C22.1918 36.9863 21.4469 36.7038 20.8818 36.1387C20.3168 35.5736 20.0342 34.8288 20.0342 33.9041C20.0342 32.9795 20.3168 32.2346 20.8818 31.6695C21.4469 31.1045 22.1918 30.8219 23.1164 30.8219H24.6575C24.6575 26.1986 25.7877 22.0377 28.0479 18.339C30.3082 14.6404 33.2877 11.7123 36.9863 9.5548V15.411C36.9863 16.3356 37.2688 17.0805 37.8339 17.6455C38.399 18.2106 39.1438 18.4932 40.0685 18.4932C40.9931 18.4932 41.738 18.2106 42.3031 17.6455C42.8681 17.0805 43.1507 16.3356 43.1507 15.411V7.08904C44.0753 6.78082 45.0514 6.54966 46.0788 6.39555C47.1062 6.24144 48.1849 6.16438 49.3151 6.16438C50.4452 6.16438 51.524 6.24144 52.5514 6.39555C53.5788 6.54966 54.5548 6.78082 55.4795 7.08904V15.411C55.4795 16.3356 55.762 17.0805 56.3271 17.6455C56.8921 18.2106 57.637 18.4932 58.5616 18.4932C59.4863 18.4932 60.2312 18.2106 60.7962 17.6455C61.3613 17.0805 61.6438 16.3356 61.6438 15.411V9.5548C65.3425 11.7123 68.3219 14.6404 70.5822 18.339C72.8425 22.0377 73.9726 26.1986 73.9726 30.8219H75.5137C76.4384 30.8219 77.1832 31.1045 77.7483 31.6695C78.3134 32.2346 78.5959 32.9795 78.5959 33.9041C78.5959 34.8288 78.3134 35.5736 77.7483 36.1387C77.1832 36.7038 76.4384 36.9863 75.5137 36.9863H73.9726C73.9726 43.7671 71.5582 49.5719 66.7294 54.4007C61.9007 59.2295 56.0959 61.6438 49.3151 61.6438ZM49.3151 49.3151C52.7055 49.3151 55.6079 48.1079 58.0223 45.6935C60.4366 43.2791 61.6438 40.3767 61.6438 36.9863H36.9863C36.9863 40.3767 38.1935 43.2791 40.6079 45.6935C43.0223 48.1079 45.9247 49.3151 49.3151 49.3151ZM95.5479 73.9726L94.6233 69.3493C94.0068 69.1438 93.4161 68.9127 92.851 68.6558C92.286 68.399 91.7466 68.0137 91.2329 67.5L86.9178 69.0411L83.8356 63.4932L87.226 60.411V56.7123L83.8356 53.6301L86.9178 48.0822L91.2329 49.6233C91.6438 49.2123 92.1575 48.8527 92.774 48.5445C93.3904 48.2363 94.0068 47.9795 94.6233 47.774L95.5479 43.1507H101.712L102.637 47.774C103.253 47.9795 103.87 48.2363 104.486 48.5445C105.103 48.8527 105.616 49.2123 106.027 49.6233L110.342 48.0822L113.425 53.6301L110.034 56.7123V60.411L113.425 63.4932L110.342 69.0411L106.027 67.5C105.514 68.0137 104.974 68.399 104.409 68.6558C103.844 68.9127 103.253 69.1438 102.637 69.3493L101.712 73.9726H95.5479ZM98.6301 63.1849C99.863 63.1849 100.942 62.7226 101.866 61.7979C102.791 60.8733 103.253 59.7945 103.253 58.5616C103.253 57.3288 102.791 56.25 101.866 55.3253C100.942 54.4007 99.863 53.9384 98.6301 53.9384C97.3973 53.9384 96.3185 54.4007 95.3938 55.3253C94.4692 56.25 94.0068 57.3288 94.0068 58.5616C94.0068 59.7945 94.4692 60.8733 95.3938 61.7979C96.3185 62.7226 97.3973 63.1849 98.6301 63.1849ZM109.726 43.1507L108.493 36.6781C107.568 36.3699 106.721 35.9846 105.95 35.5223C105.18 35.0599 104.486 34.5205 103.87 33.9041L97.3973 36.0616L93.0822 28.6644L98.3219 24.0411C98.1164 23.5274 98.0137 23.1164 98.0137 22.8082V20.3425C98.0137 20.0342 98.1164 19.6233 98.3219 19.1096L93.0822 14.4863L97.3973 7.08904L103.87 9.24658C104.486 8.63014 105.18 8.09075 105.95 7.62843C106.721 7.1661 107.568 6.78082 108.493 6.4726L109.726 0H118.356L119.589 6.4726C120.514 6.78082 121.361 7.1661 122.132 7.62843C122.902 8.09075 123.596 8.63014 124.212 9.24658L130.685 7.08904L135 14.4863L129.76 19.1096C129.966 19.6233 130.068 20.0342 130.068 20.3425V22.8082C130.068 23.1164 129.966 23.5274 129.76 24.0411L135 28.6644L130.685 36.0616L124.212 33.9041C123.596 34.5205 122.902 35.0599 122.132 35.5223C121.361 35.9846 120.514 36.3699 119.589 36.6781L118.356 43.1507H109.726ZM114.041 29.2808C116.199 29.2808 118.022 28.536 119.512 27.0462C121.002 25.5565 121.747 23.7329 121.747 21.5753C121.747 19.4178 121.002 17.5942 119.512 16.1045C118.022 14.6147 116.199 13.8699 114.041 13.8699C111.884 13.8699 110.06 14.6147 108.57 16.1045C107.08 17.5942 106.336 19.4178 106.336 21.5753C106.336 23.7329 107.08 25.5565 108.57 27.0462C110.06 28.536 111.884 29.2808 114.041 29.2808Z" fill="#6B6B6B"/>
</svg>
